<svg width="60" height="41" viewBox="0 0 60 41" fill="none" xmlns="http://www.w3.org/2000/svg">
<path d="M33.3267 6.84014C36.9458 3.13058 42.942 3.23625 46.4282 7.071L56.9045 18.5949C58.8485 20.7333 59.6473 23.6751 59.052 26.5031L57.5044 33.8541C56.6276 38.0188 52.9534 41 48.6975 41H40H21.3541C13.3895 41 9.35018 31.4161 14.9121 25.7151L33.3267 6.84014Z" fill="#0C111D"/>
<path d="M33.6559 15.8532C37.2757 12.1381 43.2785 12.2438 46.7652 16.0842L49.9101 19.548C51.8508 21.6855 52.6482 24.6243 52.0542 27.4496L51.9696 27.8518C51.0937 32.0176 47.419 35 43.1622 35H40.3333H36.335C28.3731 35 24.3326 25.4218 29.889 19.7192L33.6559 15.8532Z" fill="white"/>
</svg>
