<svg width="191" height="41" viewBox="0 0 191 41" fill="none" xmlns="http://www.w3.org/2000/svg">
<path d="M33.3267 6.84014C36.9458 3.13058 42.942 3.23625 46.4282 7.071L56.9045 18.5949C58.8485 20.7333 59.6473 23.6751 59.052 26.5031L57.5044 33.8541C56.6276 38.0188 52.9534 41 48.6975 41H40H21.3541C13.3895 41 9.35018 31.4161 14.9121 25.7151L33.3267 6.84014Z" fill="#0C111D"/>
<path d="M33.6559 15.8532C37.2757 12.1381 43.2785 12.2438 46.7652 16.0842L49.9101 19.548C51.8508 21.6855 52.6482 24.6243 52.0542 27.4496L51.9696 27.8518C51.0937 32.0176 47.419 35 43.1622 35H40.3333H36.335C28.3731 35 24.3326 25.4218 29.889 19.7192L33.6559 15.8532Z" fill="white"/>
<path d="M72.332 35H67.5859L74.9395 13.7891H80.5938L87.918 35H83.2012L81.6045 30.1074H73.9287L72.332 35ZM75.042 26.6797H80.4912L77.8398 18.5645H77.6934L75.042 26.6797ZM100.578 28.2324V19.0918H104.914V35H100.754V32.1289H100.578C99.86 33.9746 98.1461 35.2051 95.7437 35.2051C92.565 35.2051 90.3824 32.9492 90.3824 29.2285V19.0918H94.7184V28.4668C94.7184 30.3564 95.8023 31.5283 97.5016 31.543C99.0836 31.5283 100.578 30.4004 100.578 28.2324ZM116.812 19.0918V22.3438H113.823V30.1074C113.809 31.3818 114.439 31.6895 115.318 31.7188C115.757 31.7188 116.519 31.6748 117.046 31.6309V35.0586C116.577 35.1318 115.801 35.2197 114.732 35.2051C111.597 35.2197 109.458 33.8135 109.487 30.7227V22.3438H107.29V19.0918H109.487V15.2832H113.823V19.0918H116.812ZM126.659 35.3223C121.854 35.3076 118.851 32.0117 118.866 27.0898C118.851 22.1826 121.854 18.8867 126.659 18.8867C131.478 18.8867 134.467 22.1826 134.481 27.0898C134.467 32.0117 131.478 35.3076 126.659 35.3223ZM123.261 27.0898C123.261 29.873 124.418 31.9385 126.688 31.9531C128.9 31.9385 130.072 29.873 130.057 27.0898C130.072 24.292 128.9 22.1973 126.688 22.1973C124.418 22.1973 123.261 24.292 123.261 27.0898ZM137.444 35V13.7891H145.764C150.583 13.7891 153.352 16.499 153.352 20.7031C153.352 23.6035 152.019 25.7129 149.602 26.7529L154.114 35H149.25L145.193 27.4707H141.838V35H137.444ZM141.838 23.8965H144.944C147.551 23.8965 148.826 22.8271 148.811 20.7031C148.826 18.5645 147.551 17.4072 144.944 17.3926H141.838V23.8965ZM163.404 35.3223C158.526 35.3076 155.538 32.1582 155.553 27.1191C155.538 22.2119 158.57 18.8867 163.229 18.8867C167.403 18.8867 170.699 21.5234 170.699 26.9434V28.1738H159.83C159.83 30.5762 161.251 32.0557 163.492 32.0703C164.972 32.0557 166.026 31.4111 166.451 30.459H170.582C169.967 33.4033 167.33 35.3076 163.404 35.3223ZM159.83 25.4492H166.598C166.583 23.5156 165.25 22.124 163.316 22.1387C161.324 22.124 159.918 23.6182 159.83 25.4492ZM173.574 40.9766V19.0918H177.851V21.7578H178.027C178.628 20.4688 179.887 18.8867 182.568 18.8867C186.084 18.8867 189.028 21.6113 189.013 27.0605C189.028 32.3779 186.201 35.2637 182.568 35.2637C179.975 35.2637 178.642 33.7695 178.027 32.4512H177.91V40.9766H173.574ZM177.822 27.0312C177.807 29.9023 179.038 31.792 181.191 31.8066C183.403 31.792 184.604 29.8438 184.589 27.0312C184.604 24.2627 183.432 22.3438 181.191 22.3438C179.023 22.3438 177.807 24.1748 177.822 27.0312Z" fill="#0C111D"/>
</svg>
