<svg width="24" height="23" viewBox="0 0 24 23" fill="none" xmlns="http://www.w3.org/2000/svg">
<path d="M11.7195 0C5.24784 0 0 5.24692 0 11.7195C0 16.8976 3.35799 21.2905 8.01455 22.8402C8.60023 22.9487 8.81531 22.586 8.81531 22.2764C8.81531 21.997 8.80437 21.0737 8.79941 20.0945C5.53893 20.8034 4.85096 18.7117 4.85096 18.7117C4.31785 17.3571 3.54973 16.997 3.54973 16.997C2.48646 16.2696 3.62988 16.2844 3.62988 16.2844C4.80675 16.3672 5.42643 17.4922 5.42643 17.4922C6.47168 19.2839 8.16805 18.7659 8.83682 18.4665C8.94197 17.7089 9.24574 17.192 9.58086 16.8993C6.97785 16.6029 4.24138 15.598 4.24138 11.1075C4.24138 9.82802 4.69921 8.7825 5.44895 7.96179C5.32726 7.66656 4.92614 6.47462 5.56246 4.86033C5.56246 4.86033 6.54659 4.54534 8.78617 6.06165C9.72094 5.8019 10.7235 5.67175 11.7195 5.66734C12.7155 5.67175 13.7188 5.8019 14.6554 6.06165C16.8924 4.54534 17.8751 4.86033 17.8751 4.86033C18.513 6.47462 18.1117 7.66656 17.99 7.96179C18.7414 8.7825 19.1961 9.82793 19.1961 11.1075C19.1961 15.6087 16.4545 16.5999 13.8449 16.89C14.2652 17.2537 14.6397 17.9669 14.6397 19.0602C14.6397 20.6283 14.6261 21.8904 14.6261 22.2764C14.6261 22.5883 14.8371 22.9537 15.4312 22.8387C20.0852 21.2872 23.439 16.8959 23.439 11.7195C23.439 5.24692 18.1918 0 11.7195 0Z" fill="white"/>
<path d="M4.38909 16.6943C4.36335 16.7525 4.27162 16.77 4.18825 16.7301C4.10323 16.6919 4.05544 16.6124 4.08301 16.554C4.10829 16.4941 4.20002 16.4773 4.28486 16.5176C4.37006 16.5557 4.41859 16.6359 4.38909 16.6943ZM4.96557 17.2087C4.90969 17.2605 4.8004 17.2364 4.72623 17.1546C4.64957 17.0728 4.63523 16.9636 4.69194 16.911C4.74957 16.8592 4.85555 16.8834 4.93239 16.9652C5.00905 17.0478 5.02394 17.1564 4.96548 17.2088M5.36108 17.8668C5.2892 17.9167 5.17174 17.8699 5.09922 17.7657C5.02743 17.6616 5.02743 17.5365 5.10078 17.4865C5.17358 17.4364 5.2892 17.4814 5.36273 17.5848C5.43443 17.6908 5.43443 17.8158 5.36099 17.8669M6.02985 18.629C5.9656 18.6998 5.82883 18.6809 5.72864 18.5842C5.62625 18.4897 5.59767 18.3556 5.6621 18.2847C5.72708 18.2138 5.86468 18.2337 5.9656 18.3296C6.06735 18.4239 6.09842 18.559 6.02994 18.629M6.89421 18.8864C6.86599 18.9781 6.73419 19.0199 6.60146 18.9809C6.46892 18.9407 6.38216 18.8332 6.4089 18.7404C6.43648 18.6481 6.56883 18.6046 6.70257 18.6463C6.83492 18.6863 6.92188 18.793 6.8943 18.8864M7.87806 18.9955C7.88137 19.0922 7.76877 19.1723 7.62943 19.1741C7.48926 19.1771 7.37593 19.0989 7.37446 19.0039C7.37446 18.9063 7.48448 18.8268 7.62456 18.8245C7.7639 18.8218 7.87806 18.8995 7.87806 18.9955ZM8.84444 18.9585C8.86117 19.0528 8.7643 19.1496 8.62596 19.1754C8.48993 19.2002 8.36401 19.142 8.34664 19.0485C8.32973 18.9518 8.42844 18.8551 8.5642 18.83C8.70281 18.8059 8.8268 18.8626 8.84444 18.9585Z" fill="white"/>
</svg>
