<svg width="27" height="20" viewBox="0 0 27 20" fill="none" xmlns="http://www.w3.org/2000/svg">
<path fill-rule="evenodd" clip-rule="evenodd" d="M0 2C0 0.895431 0.895431 0 2 0H25C26.1046 0 27 0.895431 27 2C27 3.10457 26.1046 4 25 4H2C0.895431 4 0 3.10457 0 2ZM0 10C0 8.89543 0.895431 8 2 8H25C26.1046 8 27 8.89543 27 10C27 11.1046 26.1046 12 25 12H2C0.895431 12 0 11.1046 0 10ZM2 16C0.895431 16 0 16.8954 0 18C0 19.1046 0.895431 20 2 20H25C26.1046 20 27 19.1046 27 18C27 16.8954 26.1046 16 25 16H2Z" fill="#9292A5"/>
</svg>
