<svg width="885" height="176" viewBox="0 0 885 176" fill="none" xmlns="http://www.w3.org/2000/svg">
<path d="M90.6094 27.6406C89.0078 22.3281 84.75 19.0859 78.5781 19.0469C69.8281 19.0859 63.8906 25.7656 63.8906 37.6406C63.8906 49.5938 69.6328 56.3516 78.6562 56.3906C86.7422 56.3516 91.5469 51.7812 91.7031 44.6719H79.4375V35.8438H103.031V42.875C103.031 57.7188 92.8359 66.7812 78.5781 66.7812C62.7188 66.7812 51.9375 55.6875 51.9375 37.7969C51.9375 19.4375 63.4219 8.65625 78.3438 8.65625C91.1172 8.65625 100.922 16.5078 102.484 27.6406H90.6094ZM114.547 66V23.5781H126.109V66H114.547ZM114 12.1719C114 8.89062 116.852 6.27344 120.328 6.23438C123.766 6.27344 126.617 8.89062 126.578 12.1719C126.617 15.375 123.766 18.0312 120.328 18.0312C116.852 18.0312 114 15.375 114 12.1719ZM157.938 23.5781V32.25H149.969V52.9531C149.93 56.3516 151.609 57.1719 153.953 57.25C155.125 57.25 157.156 57.1328 158.562 57.0156V66.1562C157.312 66.3516 155.242 66.5859 152.391 66.5469C144.031 66.5859 138.328 62.8359 138.406 54.5938V32.25H132.547V23.5781H138.406V13.4219H149.969V23.5781H157.938ZM178.203 41.4688V66H166.641V9.4375H177.891V31H178.359C180.312 26.0391 184.57 23.0312 191.016 23.0312C199.883 23.0312 205.703 29.0078 205.703 38.9688V66H194.141V41C194.141 35.7266 191.328 32.6406 186.484 32.6406C181.602 32.6406 178.203 35.8828 178.203 41.4688ZM242.297 47.9531V23.5781H253.859V66H242.766V58.3438H242.297C240.383 63.2656 235.812 66.5469 229.406 66.5469C220.93 66.5469 215.109 60.5312 215.109 50.6094V23.5781H226.672V48.5781C226.672 53.6172 229.562 56.7422 234.094 56.7812C238.312 56.7422 242.297 53.7344 242.297 47.9531ZM263.578 66V9.4375H275.141V30.6875H275.453C277.055 27.25 280.414 23.0312 287.562 23.0312C296.938 23.0312 304.789 30.2969 304.828 44.8281C304.789 59.0078 297.25 66.7031 287.562 66.7031C280.648 66.7031 277.133 62.7188 275.453 59.2031H274.984V66H263.578ZM274.906 44.75C274.867 52.4062 278.188 57.4453 283.891 57.4844C289.789 57.4453 292.992 52.25 292.953 44.75C292.992 37.3672 289.867 32.25 283.891 32.25C278.148 32.25 274.867 37.1328 274.906 44.75ZM331.922 66V9.4375H354.109C366.961 9.4375 374.344 16.6641 374.344 27.875C374.344 35.6094 370.789 41.2344 364.344 44.0078L376.375 66H363.406L352.586 45.9219H343.641V66H331.922ZM343.641 36.3906H351.922C358.875 36.3906 362.273 33.5391 362.234 27.875C362.273 22.1719 358.875 19.0859 351.922 19.0469H343.641V36.3906ZM401.25 66.8594C388.242 66.8203 380.273 58.4219 380.312 44.9844C380.273 31.8984 388.359 23.0312 400.781 23.0312C411.914 23.0312 420.703 30.0625 420.703 44.5156V47.7969H391.719C391.719 54.2031 395.508 58.1484 401.484 58.1875C405.43 58.1484 408.242 56.4297 409.375 53.8906H420.391C418.75 61.7422 411.719 66.8203 401.25 66.8594ZM391.719 40.5312H409.766C409.727 35.375 406.172 31.6641 401.016 31.7031C395.703 31.6641 391.953 35.6484 391.719 40.5312ZM428.469 81.9375V23.5781H439.875V30.6875H440.344C441.945 27.25 445.305 23.0312 452.453 23.0312C461.828 23.0312 469.68 30.2969 469.641 44.8281C469.68 59.0078 462.141 66.7031 452.453 66.7031C445.539 66.7031 441.984 62.7188 440.344 59.2031H440.031V81.9375H428.469ZM439.797 44.75C439.758 52.4062 443.039 57.4453 448.781 57.4844C454.68 57.4453 457.883 52.25 457.844 44.75C457.883 37.3672 454.758 32.25 448.781 32.25C443 32.25 439.758 37.1328 439.797 44.75ZM496.703 66.8594C483.891 66.8203 475.883 58.0312 475.922 44.9062C475.883 31.8203 483.891 23.0312 496.703 23.0312C509.555 23.0312 517.523 31.8203 517.562 44.9062C517.523 58.0312 509.555 66.8203 496.703 66.8594ZM487.641 44.9062C487.641 52.3281 490.727 57.8359 496.781 57.875C502.68 57.8359 505.805 52.3281 505.766 44.9062C505.805 37.4453 502.68 31.8594 496.781 31.8594C490.727 31.8594 487.641 37.4453 487.641 44.9062ZM545.953 6.85938C557.242 6.82031 565.602 14.0859 565.641 24.2812C565.602 34.5156 557.242 41.7422 545.953 41.7812C534.742 41.7422 526.148 34.5156 526.188 24.2812C526.148 14.0859 534.742 6.82031 545.953 6.85938ZM523.219 50.6875C535.914 50.7266 553.492 50.5703 568.688 48.4219L569.469 55.6094C553.688 58.6953 536.812 58.8125 524.391 58.8125L523.219 50.6875ZM536.109 24.2812C536.07 29.9062 540.328 33.1484 545.953 33.1094C551.617 33.1484 555.914 29.9062 555.953 24.2812C555.914 18.7344 551.617 15.4531 545.953 15.4531C540.328 15.4531 536.07 18.7344 536.109 24.2812ZM572.75 73.3438V2.09375H582.672V73.3438H572.75ZM676.562 56.7031V64.9062H611.484V56.7031H638.906V42.1719H618.359V7.32812H669.297V42.1719H648.828V56.7031H676.562ZM628.203 34.3594H659.453V15.2969H628.203V34.3594ZM746.125 37.1719V45.1406H681.125V37.1719H746.125ZM688.938 71.8594V50.6875H698.781V63.8906H739.406V71.8594H688.938ZM689.016 31.3906V4.67188H738.312V12.6406H698.938V23.4219H739.016V31.3906H689.016ZM829.625 2.17188V49.3594H819.703V29.0469H807.125V20.9219H819.703V2.17188H829.625ZM770.484 38.4219C786.617 33.6562 794.352 25.7656 795.836 15.4531H774.312V7.5625H806.578C806.578 26.7812 796.383 39.5156 774.781 46.2344L770.484 38.4219ZM777.984 65.0625C793.102 62.875 800.562 54.5547 800.641 46.4688V43.9688H810.484V46.4688C810.484 54.5547 817.984 62.6797 832.984 64.9844L829 72.875C817.828 71.0391 809.781 66.0391 805.523 59.125C801.188 66.0391 793.062 71.0781 781.891 72.9531L777.984 65.0625Z" fill="#0C111D"/>
<path d="M159.568 100.357V117.877H157.283V100.357H159.568ZM138.592 114.449C144.949 112.589 148.978 108.956 149.49 104.283H139.881V102.379H151.922C151.907 109.088 147.161 114.01 139.5 116.324L138.592 114.449ZM141.141 124.469C145.726 123.663 149.959 120.865 149.959 117.057V116.002H152.361V117.057C152.332 120.836 156.478 123.648 161.092 124.469L160.184 126.285C156.243 125.538 152.654 123.473 151.146 120.382C149.593 123.473 145.96 125.538 142.049 126.285L141.141 124.469ZM180.049 104.518V106.422H164.551V104.518H171.143V100.65H173.428V104.518H180.049ZM166.162 114.566C166.162 111.065 168.755 108.59 172.314 108.59C175.845 108.59 178.408 111.065 178.438 114.566C178.408 118.038 175.845 120.543 172.314 120.543C168.755 120.543 166.162 118.038 166.162 114.566ZM168.33 114.566C168.301 116.91 170.029 118.565 172.314 118.551C174.6 118.565 176.313 116.91 176.328 114.566C176.313 112.252 174.6 110.567 172.314 110.553C170.029 110.567 168.301 112.252 168.33 114.566ZM179.492 113.219V111.285H183.857V100.328H186.143V126.373H183.857V113.219H179.492ZM214.826 120.982V122.916H190.979V120.982H214.826ZM193.791 115.768V102.203H196.105V107.066H209.641V102.203H211.896V115.768H193.791ZM196.105 113.922H209.641V108.912H196.105V113.922ZM249.283 121.07V123.033H225.436V121.07H249.283ZM227.545 104.869V102.965H246.998V104.869H242.867V113.98H246.939V115.855H227.604V113.98H231.676V104.869H227.545ZM233.961 113.98H240.611V104.869H233.961V113.98ZM275.711 121.217V123.15H251.863V121.217H262.586V116.295H254.852V108.268H270.438V104.166H254.793V102.262H272.693V110.143H257.137V114.391H273.309V116.295H264.842V121.217H275.711ZM295.342 100.914V116.031H293.115V108.971H289.131V107.066H293.115V100.914H295.342ZM278.408 113.805C281.792 112.384 283.784 109.015 283.77 105.924V104.371H278.906V102.467H290.596V104.371H285.996V105.924C285.996 108.751 287.9 111.842 291.211 113.219L290.01 114.977C287.563 113.951 285.85 112.003 284.941 109.762C284.033 112.296 282.231 114.479 279.639 115.621L278.408 113.805ZM282.861 119.283V117.408H300.41V126.373H298.154V119.283H282.861ZM298.213 116.266V100.328H300.41V116.266H298.213ZM325.812 114.42V116.295H307.795V102.584H325.52V104.518H310.139V108.385H324.963V110.23H310.139V114.42H325.812ZM304.719 122.975V121.07H328.566V122.975H304.719ZM363.023 121.158V123.092H339.176V121.158H349.928V115.182H352.184V121.158H363.023ZM340.494 114.303C345.519 113.497 349.869 110.465 349.898 106.393H341.402V104.488H349.928V100.885H352.184V104.488H360.738V106.393H352.242C352.242 110.465 356.593 113.497 361.588 114.303L360.709 116.119C356.549 115.387 352.726 113.277 351.056 110.011C349.415 113.277 345.592 115.387 341.402 116.119L340.494 114.303ZM387.137 100.328V126.373H384.822V100.328H387.137ZM365.926 119.605C372.972 116.266 376.575 111.271 377.088 105.045H367.127V103.17H379.432C379.402 110.655 375.916 117.291 367.186 121.48L365.926 119.605ZM414.15 100.328V118.111H411.953V100.328H414.15ZM392.061 113.219C395.43 111.71 397.524 108.312 397.51 105.367V101.939H399.736V105.367C399.736 108.355 401.685 111.344 404.951 112.691L403.721 114.479C401.274 113.438 399.531 111.476 398.638 109.161C397.7 111.651 395.854 113.863 393.32 114.977L392.061 113.219ZM395.43 124.469C400.015 123.795 404.409 121.041 404.395 117.672V116.822H406.709V117.672C406.709 121.041 411.089 123.795 415.703 124.469L414.766 126.256C410.854 125.611 407.134 123.648 405.552 120.777C403.955 123.648 400.234 125.611 396.309 126.256L395.43 124.469ZM402.695 108.238V106.334H406.797V100.914H409.023V115.738H406.797V108.238H402.695ZM432.463 102.262V104.137H422.297V107.418H431.73V109.293H422.297V112.721C427.834 112.735 430.939 112.633 434.602 112.018L434.836 113.893C431.042 114.508 427.849 114.64 422.092 114.625H419.982V102.262H432.463ZM422.502 121.568C422.502 118.595 425.798 116.852 431.32 116.881C436.74 116.852 440.095 118.595 440.08 121.568C440.095 124.601 436.74 126.314 431.32 126.314C425.798 126.314 422.502 124.601 422.502 121.568ZM424.787 121.568C424.787 123.414 427.219 124.498 431.32 124.498C435.305 124.498 437.81 123.414 437.824 121.568C437.81 119.796 435.305 118.697 431.32 118.697C427.219 118.697 424.787 119.796 424.787 121.568ZM437.678 116.5V100.357H439.963V116.5H437.678ZM474.391 100.328V126.432H472.076V100.328H474.391ZM453.883 111.432C453.897 105.895 456.651 102.364 460.533 102.35C464.4 102.364 467.198 105.895 467.184 111.432C467.198 116.983 464.4 120.499 460.533 120.484C456.651 120.499 453.897 116.983 453.883 111.432ZM456.109 111.432C456.109 115.665 457.926 118.448 460.533 118.434C463.155 118.448 464.957 115.665 464.957 111.432C464.957 107.198 463.155 104.415 460.533 104.4C457.926 104.415 456.109 107.198 456.109 111.432ZM501.609 100.328V126.373H499.412V100.328H501.609ZM479.021 119.43C482.654 117.262 484.778 112.501 484.764 107.77V105.309H479.754V103.404H491.766V105.309H486.99V107.77C486.99 112.267 489.026 116.764 492.615 118.844L491.209 120.543C488.646 119.005 486.829 116.192 485.921 112.882C484.983 116.471 483.094 119.532 480.486 121.158L479.021 119.43ZM489.773 111.607V109.732H494.168V100.973H496.336V125.025H494.168V111.607H489.773ZM535.393 100.328V119.723H533.078V112.164H528.625V110.23H533.078V107.213H528.625V105.309H533.078V100.328H535.393ZM513.859 113.805C514.899 113.805 516.027 113.79 517.229 113.775V104.342H514.592V102.467H528.42V104.342H525.754V113.468C526.955 113.395 528.142 113.292 529.27 113.16L529.387 114.889C524.333 115.665 518.386 115.753 514.152 115.768L513.859 113.805ZM518.605 125.816V118.111H520.92V123.883H536.096V125.816H518.605ZM519.455 113.731C520.788 113.702 522.165 113.658 523.527 113.6V104.342H519.455V113.731ZM560.385 100.328V111.08H564.75V112.984H560.385V126.373H558.1V100.328H560.385ZM540.082 106.422V104.518H546.791V100.65H549.076V104.518H555.58V106.422H540.082ZM541.576 114.566C541.562 111.051 544.257 108.59 547.963 108.59C551.64 108.59 554.32 111.051 554.35 114.566C554.32 118.097 551.64 120.543 547.963 120.543C544.257 120.543 541.562 118.097 541.576 114.566ZM543.773 114.566C543.759 116.939 545.531 118.609 547.963 118.58C550.365 118.609 552.123 116.939 552.152 114.566C552.123 112.208 550.365 110.509 547.963 110.523C545.531 110.509 543.759 112.208 543.773 114.566ZM587.545 102.965V105.572C587.516 108.766 587.516 112.34 586.578 117.584L584.234 117.32C585.216 112.34 585.216 108.692 585.23 105.572V104.869H569.176V102.965H587.545ZM566.656 122.682V120.777H575.973V111.461H578.229V120.777H590.387V122.682H566.656ZM621.973 100.328V110.523H625.518V112.486H621.973V126.373H619.688V100.328H621.973ZM601.641 120.074V102.76H603.633V109.498H606.914V102.76H608.877V120.074H601.641ZM603.633 118.141H606.914V111.344H603.633V118.141ZM610.283 120.074V102.76H612.246V109.498H615.439V102.76H617.402V120.074H610.283ZM612.246 118.141H615.439V111.344H612.246V118.141ZM651.389 121.158V123.092H627.541V121.158H651.389ZM630.471 104.225V102.32H648.371V110.201H632.814V114.479H648.986V116.324H630.529V108.326H646.115V104.225H630.471ZM676.264 100.328V126.373H674.066V100.328H676.264ZM653.998 119.078C659.652 115.724 662.494 111.021 662.934 105.572H655.111V103.668H665.219C665.219 106.231 664.809 108.707 663.915 111.021H668.588V101.031H670.785V125.055H668.588V112.896H663.065C661.498 115.929 658.979 118.609 655.346 120.748L653.998 119.078ZM708.582 100.328V111.08H712.947V112.984H708.582V126.373H706.297V100.328H708.582ZM688.279 106.422V104.518H694.988V100.65H697.273V104.518H703.777V106.422H688.279ZM689.773 114.566C689.759 111.051 692.454 108.59 696.16 108.59C699.837 108.59 702.518 111.051 702.547 114.566C702.518 118.097 699.837 120.543 696.16 120.543C692.454 120.543 689.759 118.097 689.773 114.566ZM691.971 114.566C691.956 116.939 693.729 118.609 696.16 118.58C698.562 118.609 700.32 116.939 700.35 114.566C700.32 112.208 698.562 110.509 696.16 110.523C693.729 110.509 691.956 112.208 691.971 114.566ZM723.672 108.326C723.643 112.501 726.66 117.101 730.439 118.902L729.121 120.719C726.191 119.283 723.716 116.207 722.544 112.677C721.343 116.5 718.735 119.869 715.82 121.363L714.414 119.547C718.164 117.716 721.387 112.765 721.416 108.326V104.928H715.352V103.023H729.531V104.928H723.672V108.326ZM732.725 126.373V100.328H735.01V110.875H739.375V112.838H735.01V126.373H732.725ZM745.5 102.789L745.295 118.023H742.834L742.629 102.789H745.5ZM742.189 122.271C742.16 121.246 743.039 120.396 744.064 120.396C745.104 120.396 745.954 121.246 745.939 122.271C745.954 123.312 745.104 124.161 744.064 124.176C743.039 124.161 742.16 123.312 742.189 122.271ZM90.4082 166.293C86.1895 166.293 83.1572 164.037 83.0254 160.668H85.6914C85.8379 162.689 87.8447 163.949 90.3789 163.949C93.1768 163.949 95.1982 162.44 95.2129 160.229C95.1982 157.914 93.3525 156.288 90.0566 156.273H88.3281V153.959H90.0566C92.6348 153.959 94.4365 152.509 94.4219 150.326C94.4365 148.202 92.8838 146.796 90.4668 146.781C88.1963 146.796 86.1309 148.041 86.0137 150.121H83.4648C83.5967 146.752 86.7314 144.496 90.4961 144.496C94.5391 144.496 97 147.147 96.9707 150.18C97 152.597 95.5938 154.354 93.3672 154.984V155.131C96.1357 155.556 97.8057 157.533 97.791 160.229C97.8057 163.715 94.6416 166.293 90.4082 166.293ZM124.98 156.127V158.002H114.375V163.1H112.09V158.002H101.133V156.127H124.98ZM104.18 167.816V160.697H106.465V165.883H122.314V167.816H104.18ZM104.326 153.578V143.178H106.611V146.518H119.502V143.178H121.787V153.578H104.326ZM106.611 151.703H119.502V148.275H106.611V151.703ZM144.057 144.789V166H141.391V147.543H141.273L136.117 150.971V148.305L141.391 144.789H144.057ZM173.121 163.158V165.092H149.273V163.158H160.025V157.182H162.281V163.158H173.121ZM150.592 156.303C155.616 155.497 159.967 152.465 159.996 148.393H151.5V146.488H160.025V142.885H162.281V146.488H170.836V148.393H162.34C162.34 152.465 166.69 155.497 171.686 156.303L170.807 158.119C166.646 157.387 162.823 155.277 161.153 152.011C159.513 155.277 155.689 157.387 151.5 158.119L150.592 156.303ZM199.52 154.428V156.244H175.672V154.428H199.52ZM178.543 160.053V158.324H196.531V163.861H180.887V166.352H197.381V168.021H178.572V162.279H194.246V160.053H178.543ZM178.689 144.789V143.119H196.443V148.51H181.062V150.795H196.912V152.465H178.777V146.928H194.129V144.789H178.689ZM233.889 156.156V158.031H210.129V156.156H220.852V153.578H213.293V143.09H230.93V144.965H215.607V147.396H230.227V149.154H215.607V151.732H231.076V153.578H223.137V156.156H233.889ZM213.029 164.154C213.015 161.444 216.252 159.965 222.023 159.994C227.736 159.965 230.959 161.444 230.988 164.154C230.959 166.894 227.736 168.314 222.023 168.314C216.252 168.314 213.015 166.894 213.029 164.154ZM215.344 164.154C215.314 165.736 217.717 166.557 222.023 166.527C226.286 166.557 228.659 165.736 228.674 164.154C228.659 162.602 226.286 161.737 222.023 161.723C217.717 161.737 215.314 162.602 215.344 164.154ZM249.594 146.84V148.715H236.527V146.84H241.947V143.119H244.232V146.84H249.594ZM237.465 156.391C237.465 152.934 239.823 150.487 243.061 150.473C246.342 150.487 248.686 152.934 248.715 156.391C248.686 159.892 246.342 162.353 243.061 162.367C239.823 162.353 237.465 159.892 237.465 156.391ZM239.516 156.391C239.516 158.705 240.995 160.36 243.061 160.346C245.141 160.36 246.664 158.705 246.664 156.391C246.664 154.105 245.141 152.436 243.061 152.406C240.995 152.436 239.516 154.105 239.516 156.391ZM250.941 167.084V142.973H253.109V153.314H256.566V142.328H258.764V168.373H256.566V155.219H253.109V167.084H250.941ZM272.184 149.33C272.169 154.047 275.201 158.793 278.98 160.521L277.604 162.396C274.645 160.873 272.198 157.768 271.041 154.062C269.884 157.958 267.438 161.298 264.479 162.865L262.984 161.02C266.808 159.145 269.825 154.135 269.84 149.33V144.584H272.184V149.33ZM276.139 153.109V151.234H282.32V142.328H284.605V168.432H282.32V153.109H276.139ZM321.318 163.158V165.092H297.471V163.158H308.223V157.182H310.479V163.158H321.318ZM298.789 156.303C303.813 155.497 308.164 152.465 308.193 148.393H299.697V146.488H308.223V142.885H310.479V146.488H319.033V148.393H310.537C310.537 152.465 314.888 155.497 319.883 156.303L319.004 158.119C314.844 157.387 311.021 155.277 309.351 152.011C307.71 155.277 303.887 157.387 299.697 158.119L298.789 156.303ZM345.432 142.328V168.373H343.117V142.328H345.432ZM324.221 161.605C331.267 158.266 334.87 153.271 335.383 147.045H325.422V145.17H337.727C337.697 152.655 334.211 159.291 325.48 163.48L324.221 161.605ZM372.445 142.328V160.111H370.248V142.328H372.445ZM350.355 155.219C353.725 153.71 355.819 150.312 355.805 147.367V143.939H358.031V147.367C358.031 150.355 359.979 153.344 363.246 154.691L362.016 156.479C359.569 155.438 357.826 153.476 356.933 151.161C355.995 153.651 354.149 155.863 351.615 156.977L350.355 155.219ZM353.725 166.469C358.31 165.795 362.704 163.041 362.689 159.672V158.822H365.004V159.672C365.004 163.041 369.384 165.795 373.998 166.469L373.061 168.256C369.149 167.611 365.429 165.648 363.847 162.777C362.25 165.648 358.529 167.611 354.604 168.256L353.725 166.469ZM360.99 150.238V148.334H365.092V142.914H367.318V157.738H365.092V150.238H360.99ZM390.758 144.262V146.137H380.592V149.418H390.025V151.293H380.592V154.721C386.129 154.735 389.234 154.633 392.896 154.018L393.131 155.893C389.337 156.508 386.144 156.64 380.387 156.625H378.277V144.262H390.758ZM380.797 163.568C380.797 160.595 384.093 158.852 389.615 158.881C395.035 158.852 398.39 160.595 398.375 163.568C398.39 166.601 395.035 168.314 389.615 168.314C384.093 168.314 380.797 166.601 380.797 163.568ZM383.082 163.568C383.082 165.414 385.514 166.498 389.615 166.498C393.6 166.498 396.104 165.414 396.119 163.568C396.104 161.796 393.6 160.697 389.615 160.697C385.514 160.697 383.082 161.796 383.082 163.568ZM395.973 158.5V142.357H398.258V158.5H395.973ZM415.047 142.797C420.833 142.797 424.231 144.394 424.246 147.279C424.231 150.238 420.833 151.835 415.047 151.85C409.231 151.835 405.818 150.238 405.818 147.279C405.818 144.394 409.231 142.797 415.047 142.797ZM403.182 155.482V153.607H426.912V155.482H403.182ZM406.053 159.496V157.738H423.865V163.568H408.396V166.264H424.656V168.08H406.111V161.869H421.609V159.496H406.053ZM408.221 147.279C408.191 149.096 410.726 150.092 415.047 150.092C419.368 150.092 421.888 149.096 421.902 147.279C421.888 145.565 419.368 144.54 415.047 144.525C410.726 144.54 408.191 145.565 408.221 147.279ZM458.498 142.328V152.523H462.043V154.486H458.498V168.373H456.213V142.328H458.498ZM438.166 162.074V144.76H440.158V151.498H443.439V144.76H445.402V162.074H438.166ZM440.158 160.141H443.439V153.344H440.158V160.141ZM446.809 162.074V144.76H448.771V151.498H451.965V144.76H453.928V162.074H446.809ZM448.771 160.141H451.965V153.344H448.771V160.141ZM487.914 163.158V165.092H464.066V163.158H487.914ZM466.996 146.225V144.32H484.896V152.201H469.34V156.479H485.512V158.324H467.055V150.326H482.641V146.225H466.996ZM511.383 144.965V147.572C511.354 150.766 511.354 154.34 510.416 159.584L508.072 159.32C509.054 154.34 509.054 150.692 509.068 147.572V146.869H493.014V144.965H511.383ZM490.494 164.682V162.777H499.811V153.461H502.066V162.777H514.225V164.682H490.494ZM545.312 142.328V150.268H549.238V152.201H545.312V161.4H542.998V142.328H545.312ZM524.98 156.537C531.235 154.589 535.293 150.883 535.776 146.283H526.064V144.35H538.281C538.281 151.059 533.491 156.039 525.977 158.383L524.98 156.537ZM528.994 167.816V159.467H531.279V165.883H546.514V167.816H528.994ZM572.971 142.328V161.723H570.656V154.164H566.203V152.23H570.656V149.213H566.203V147.309H570.656V142.328H572.971ZM551.438 155.805C552.478 155.805 553.605 155.79 554.807 155.775V146.342H552.17V144.467H565.998V146.342H563.332V155.468C564.533 155.395 565.72 155.292 566.848 155.16L566.965 156.889C561.911 157.665 555.964 157.753 551.73 157.768L551.438 155.805ZM556.184 167.816V160.111H558.498V165.883H573.674V167.816H556.184ZM557.033 155.731C558.366 155.702 559.743 155.658 561.105 155.6V146.342H557.033V155.731ZM597.963 142.328V153.08H602.328V154.984H597.963V168.373H595.678V142.328H597.963ZM577.66 148.422V146.518H584.369V142.65H586.654V146.518H593.158V148.422H577.66ZM579.154 156.566C579.14 153.051 581.835 150.59 585.541 150.59C589.218 150.59 591.898 153.051 591.928 156.566C591.898 160.097 589.218 162.543 585.541 162.543C581.835 162.543 579.14 160.097 579.154 156.566ZM581.352 156.566C581.337 158.939 583.109 160.609 585.541 160.58C587.943 160.609 589.701 158.939 589.73 156.566C589.701 154.208 587.943 152.509 585.541 152.523C583.109 152.509 581.337 154.208 581.352 156.566ZM626.529 142.328V168.373H624.332V142.328H626.529ZM604.264 161.078C609.918 157.724 612.76 153.021 613.199 147.572H605.377V145.668H615.484C615.484 148.231 615.074 150.707 614.181 153.021H618.854V143.031H621.051V167.055H618.854V154.896H613.331C611.764 157.929 609.244 160.609 605.611 162.748L604.264 161.078ZM647.949 149.33C647.935 154.091 651.172 158.866 655.01 160.609L653.604 162.426C650.63 160.99 648.066 157.899 646.821 154.193C645.62 158.119 643.057 161.415 640.01 162.953L638.545 161.02C642.427 159.247 645.635 154.267 645.664 149.33V144.584H647.949V149.33ZM657.852 168.432V142.328H660.166V168.432H657.852ZM673.938 147.162C673.952 150.634 676.501 153.798 680.354 155.131L679.182 156.918C676.208 155.863 673.938 153.739 672.824 151.044C671.711 154.003 669.323 156.303 666.262 157.416L665.031 155.629C668.928 154.252 671.652 150.897 671.682 147.162V146.049H665.734V144.174H679.797V146.049H673.938V147.162ZM668.43 161.283V159.408H685.48V168.373H683.195V161.283H668.43ZM683.195 158.031V142.328H685.48V149.213H689.406V151.176H685.48V158.031H683.195ZM704.555 146.84V148.715H691.488V146.84H696.908V143.119H699.193V146.84H704.555ZM692.426 156.391C692.426 152.934 694.784 150.487 698.021 150.473C701.303 150.487 703.646 152.934 703.676 156.391C703.646 159.892 701.303 162.353 698.021 162.367C694.784 162.353 692.426 159.892 692.426 156.391ZM694.477 156.391C694.477 158.705 695.956 160.36 698.021 160.346C700.102 160.36 701.625 158.705 701.625 156.391C701.625 154.105 700.102 152.436 698.021 152.406C695.956 152.436 694.477 154.105 694.477 156.391ZM705.902 167.084V142.973H708.07V153.314H711.527V142.328H713.725V168.373H711.527V155.219H708.07V167.084H705.902ZM741.822 163.129V165.033H717.975V163.129H728.697V157.504H720.787V144.174H723.102V148.891H736.637V144.174H738.893V157.504H730.953V163.129H741.822ZM723.102 155.629H736.637V150.766H723.102V155.629ZM752.137 149.74C752.137 153.886 754.158 158.354 757.615 160.404L756.297 162.191C753.777 160.668 751.976 157.885 751.067 154.706C750.115 158.178 748.182 161.166 745.574 162.748L744.109 161.02C747.713 158.91 749.91 154.296 749.91 149.828V144.789H752.137V149.74ZM754.744 153.637V151.674H759.168V142.885H761.336V167.055H759.168V153.637H754.744ZM764.5 168.373V142.328H766.727V168.373H764.5ZM794.678 163.1V165.033H770.83V163.1H776.748V156.083C774.521 154.926 773.174 153.051 773.174 150.678C773.174 146.649 777.129 143.998 782.695 143.969C788.262 143.998 792.217 146.649 792.217 150.678C792.217 153.007 790.913 154.853 788.76 156.01V163.1H794.678ZM775.4 150.678C775.386 153.593 778.418 155.541 782.695 155.541C786.929 155.541 789.99 153.593 789.99 150.678C789.99 147.763 786.929 145.844 782.695 145.873C778.418 145.844 775.386 147.763 775.4 150.678ZM779.004 163.1H786.445V156.903C785.317 157.196 784.058 157.357 782.695 157.357C781.362 157.357 780.117 157.211 779.004 156.918V163.1ZM801.477 144.789L801.271 160.023H798.811L798.605 144.789H801.477ZM798.166 164.271C798.137 163.246 799.016 162.396 800.041 162.396C801.081 162.396 801.931 163.246 801.916 164.271C801.931 165.312 801.081 166.161 800.041 166.176C799.016 166.161 798.137 165.312 798.166 164.271Z" fill="#0C111D"/>
</svg>
