<svg width="16" height="16" viewBox="0 0 16 16" fill="none" xmlns="http://www.w3.org/2000/svg">
<path d="M7.99907 1.84775C10.0038 1.84775 10.2412 1.85654 11.0297 1.89171C11.7624 1.92395 12.1581 2.04705 12.4219 2.14964C12.7707 2.28446 13.0227 2.44859 13.2836 2.70945C13.5474 2.97323 13.7086 3.22236 13.8434 3.57115C13.946 3.83493 14.0691 4.23354 14.1013 4.96334C14.1365 5.7547 14.1453 5.99211 14.1453 7.99394C14.1453 9.99871 14.1365 10.2361 14.1013 11.0245C14.0691 11.7573 13.946 12.153 13.8434 12.4167C13.7086 12.7655 13.5444 13.0176 13.2836 13.2784C13.0198 13.5422 12.7707 13.7034 12.4219 13.8383C12.1581 13.9408 11.7595 14.0639 11.0297 14.0962C10.2383 14.1313 10.0009 14.1401 7.99907 14.1401C5.99431 14.1401 5.7569 14.1313 4.96847 14.0962C4.23574 14.0639 3.84006 13.9408 3.57627 13.8383C3.22749 13.7034 2.97543 13.5393 2.71458 13.2784C2.45079 13.0147 2.28959 12.7655 2.15477 12.4167C2.05218 12.153 1.92908 11.7543 1.89684 11.0245C1.86167 10.2332 1.85288 9.99578 1.85288 7.99394C1.85288 5.98918 1.86167 5.75177 1.89684 4.96334C1.92908 4.23061 2.05218 3.83493 2.15477 3.57115C2.28959 3.22236 2.45372 2.9703 2.71458 2.70945C2.97836 2.44566 3.22749 2.28446 3.57627 2.14964C3.84006 2.04705 4.23867 1.92395 4.96847 1.89171C5.7569 1.85654 5.99431 1.84775 7.99907 1.84775ZM7.99907 0.496582C5.96207 0.496582 5.70707 0.505375 4.90692 0.540546C4.10971 0.575718 3.56162 0.704679 3.08681 0.889329C2.59148 1.08277 2.17235 1.33776 1.75616 1.75689C1.33703 2.17308 1.08204 2.59221 0.888596 3.08461C0.703947 3.56235 0.574985 4.10751 0.539814 4.90473C0.504642 5.70781 0.49585 5.9628 0.49585 7.99981C0.49585 10.0368 0.504642 10.2918 0.539814 11.092C0.574985 11.8892 0.703947 12.4373 0.888596 12.9121C1.08204 13.4074 1.33703 13.8265 1.75616 14.2427C2.17235 14.6589 2.59148 14.9168 3.08388 15.1074C3.56162 15.292 4.10678 15.421 4.90399 15.4561C5.70414 15.4913 5.95913 15.5001 7.99614 15.5001C10.0331 15.5001 10.2881 15.4913 11.0883 15.4561C11.8855 15.421 12.4336 15.292 12.9084 15.1074C13.4008 14.9168 13.8199 14.6589 14.2361 14.2427C14.6523 13.8265 14.9102 13.4074 15.1008 12.915C15.2854 12.4373 15.4144 11.8921 15.4495 11.0949C15.4847 10.2947 15.4935 10.0397 15.4935 8.00274C15.4935 5.96573 15.4847 5.71074 15.4495 4.91059C15.4144 4.11337 15.2854 3.56528 15.1008 3.09047C14.9161 2.59221 14.6611 2.17308 14.242 1.75689C13.8258 1.34069 13.4067 1.08277 12.9143 0.89226C12.4365 0.70761 11.8914 0.578649 11.0942 0.543477C10.2911 0.505375 10.0361 0.496582 7.99907 0.496582Z" fill="#5F5F6F"/>
<path d="M7.99909 4.14551C5.87122 4.14551 4.1449 5.87184 4.1449 7.9997C4.1449 10.1276 5.87122 11.8539 7.99909 11.8539C10.127 11.8539 11.8533 10.1276 11.8533 7.9997C11.8533 5.87184 10.127 4.14551 7.99909 4.14551ZM7.99909 10.4998C6.61862 10.4998 5.49899 9.38018 5.49899 7.9997C5.49899 6.61923 6.61862 5.4996 7.99909 5.4996C9.37957 5.4996 10.4992 6.61923 10.4992 7.9997C10.4992 9.38018 9.37957 10.4998 7.99909 10.4998Z" fill="#5F5F6F"/>
<path d="M12.9054 3.99306C12.9054 4.49132 12.501 4.89286 12.0056 4.89286C11.5074 4.89286 11.1058 4.48839 11.1058 3.99306C11.1058 3.4948 11.5103 3.09326 12.0056 3.09326C12.501 3.09326 12.9054 3.49773 12.9054 3.99306Z" fill="#5F5F6F"/>
</svg>
