<svg viewBox="0 0 20 20" fill="none" xmlns="http://www.w3.org/2000/svg">
<g id="icon-x-rounded">
<path id="icon-x-rounded_2" fill-rule="evenodd" clip-rule="evenodd" d="M20 10C20 15.5228 15.5228 20 10 20C4.47715 20 0 15.5228 0 10C0 4.47715 4.47715 0 10 0C15.5228 0 20 4.47715 20 10ZM5.98992 6.16437C6.37518 5.77911 6.99982 5.77911 7.38508 6.16437L9.82677 8.60607L12.2686 6.16424C12.6539 5.77898 13.2785 5.77898 13.6638 6.16424C14.049 6.5495 14.049 7.17413 13.6638 7.55939L11.2219 10.0012L13.6633 12.4426C14.0485 12.8278 14.0485 13.4525 13.6633 13.8377C13.278 14.223 12.6534 14.223 12.2681 13.8377L9.82677 11.3964L7.38555 13.8376C7.00029 14.2228 6.37566 14.2228 5.9904 13.8376C5.60514 13.4523 5.60514 12.8277 5.9904 12.4424L8.43161 10.0012L5.98992 7.55953C5.60466 7.17427 5.60466 6.54964 5.98992 6.16437Z" fill="#B1B1C3"/>
</g>
</svg>
